<?xml version="1.0" encoding="utf-8"?>
<!-- Generator: Adobe Illustrator 16.0.0, SVG Export Plug-In . SVG Version: 6.00 Build 0)  -->
<!DOCTYPE svg PUBLIC "-//W3C//DTD SVG 1.1//EN" "http://www.w3.org/Graphics/SVG/1.1/DTD/svg11.dtd">
<svg version="1.1" id="Layer_1" xmlns="http://www.w3.org/2000/svg" xmlns:xlink="http://www.w3.org/1999/xlink" x="0px" y="0px"
	 width="990.091px" height="825.408px" viewBox="0 0 990.091 825.408" enable-background="new 0 0 990.091 825.408"
	 xml:space="preserve">
<g>
	<path opacity="0.05" fill="#193F6F" enable-background="new    " d="M740.235,105.465c-112.642-67.592-197.89,38.586-197.89,38.586
		s-85.272-106.178-197.914-38.586c-112.604,67.572-109.35,273.477,197.914,402.156C849.585,378.939,852.812,173.037,740.235,105.465
		z"/>
	<path fill="none" stroke="#e27c00" stroke-width="40" stroke-linecap="round" stroke-linejoin="round" stroke-miterlimit="10" d="
		M754.228,211.529c20.101-72.334-7.295-136.59-61.299-169.037C580.325-25.068,495.048,81.105,495.048,81.105
		S409.769-25.068,297.13,42.492c-112.607,67.563-109.354,273.504,197.918,402.203c106.5-44.611,176.469-98.535,217.73-152.713"/>
	<path fill="none" stroke="#e27c00" stroke-width="40" stroke-linecap="round" stroke-linejoin="round" stroke-miterlimit="10" d="
		M596.944,124.5c10.838-10.836,46.832-16.564,70.912,19.879"/>
	<g>
		<path fill="none" stroke="#e27c00" stroke-width="40" stroke-linecap="round" stroke-linejoin="round" stroke-miterlimit="10" d="
			M295.565,799.314c0-38.682-7.14-37.461-42.925-63.191c0,0-187.02-134.492-211.936-168.977
			c-21.73-30.064-20.697-143.207-20.697-193.313c0-50.072,7.106-84.041,35.721-84.041c29.867,0,30.271,40.088,36.533,85.465
			c7.639,55.365,7.356,116.648,30.555,135.559c21.574,17.561,146.009,76.369,156.972,58.713c0,0-15.935-14.088-45.988-37.051
			c-21.662-16.545-29.178-42.199-15.902-61.482c12.613-18.551,48.492-19.461,97.801,16.229
			c45.736,33.078,68.996,48.387,100.769,90.16c31.151,40.963,30.901,267.793,30.901,221.932"/>
		<path fill="none" stroke="#e27c00" stroke-width="40" stroke-linecap="round" stroke-linejoin="round" stroke-miterlimit="10" d="
			M694.499,799.314c0-38.682,7.168-37.461,42.947-63.191c0,0,187.022-134.492,211.912-168.977
			c21.756-30.064,20.725-143.207,20.725-193.313c0-50.072-7.104-84.041-35.75-84.041c-29.838,0-30.244,40.088-36.506,85.465
			c-7.639,55.365-7.291,116.648-30.555,135.559c-21.57,17.561-146.012,76.369-156.996,58.713c0,0,15.934-14.088,45.986-37.051
			c21.696-16.545,29.178-42.199,15.934-61.482c-12.617-18.551-48.49-19.461-97.797,16.229c-45.74,33.078-69,48.387-100.713,90.16
			c-31.209,40.963-30.959,267.793-30.959,221.932"/>
	</g>
</g>
</svg>
